PathFileType	4	(X/Y/Z)	C:\Users\italobelli\Desktop\GitHub\PTbot_officialCBL\Personal_Results\SHRUG22_noisy1.trc
DataRate	CameraRate	NumFrames	NumMarkers	Units	OrigDataRate	OrigDataStartFrame	OrigNumFrames
110.888889	110.888889	25	9	m	110.888889	313	500
Frame#	Time		gu		centelbow		EpL		centpxt8		centijc7		ij		ts		aa		ai
			X1	Y1	Z1	X2	Y2	Z2	X3	Y3	Z3	X4	Y4	Z4	X5	Y5	Z5	X6	Y6	Z6	X7	Y7	Z7	X8	Y8	Z8	X9	Y9	Z9

313	2.8136	-0.12409	0.04352	0.15076	-0.12209	-0.19125	0.21907	-0.11612	-0.17924	0.24856	-0.046816	-0.15316	-0.008669	-0.046816	0.031938	-0.008669	0	0	0	-0.13092	0.045381	0.017245	-0.1546	0.073322	0.13059	-0.14264	-0.063907	0.047057
314	2.8226	-0.12404	0.043156	0.15079	-0.12201	-0.1918	0.21888	-0.11596	-0.17982	0.24837	-0.046816	-0.15316	-0.008669	-0.046816	0.031938	-0.008669	0	0	0	-0.13096	0.045472	0.017368	-0.15448	0.073062	0.13084	-0.14268	-0.063912	0.046856
315	2.8317	-0.12398	0.042787	0.15081	-0.12193	-0.19236	0.21868	-0.11581	-0.18041	0.24817	-0.046816	-0.15316	-0.008669	-0.046816	0.031938	-0.008669	0	0	0	-0.13101	0.04556	0.017494	-0.15435	0.072797	0.13109	-0.14273	-0.063917	0.046657
316	2.8407	-0.12393	0.042414	0.15084	-0.12185	-0.19292	0.21849	-0.11566	-0.181	0.24797	-0.046816	-0.15316	-0.008669	-0.046816	0.031938	-0.008669	0	0	0	-0.13105	0.045645	0.017622	-0.15423	0.072529	0.13134	-0.14277	-0.063922	0.046458
317	2.8497	-0.12387	0.042037	0.15087	-0.12178	-0.19348	0.21828	-0.11552	-0.1816	0.24777	-0.046816	-0.15316	-0.008669	-0.046816	0.031938	-0.008669	0	0	0	-0.1311	0.045728	0.017751	-0.1541	0.072258	0.13159	-0.14282	-0.063928	0.046261
318	2.8587	-0.12381	0.041656	0.1509	-0.12171	-0.19405	0.21807	-0.11538	-0.1822	0.24756	-0.046816	-0.15316	-0.008669	-0.046816	0.031938	-0.008669	0	0	0	-0.13114	0.045807	0.017883	-0.15397	0.071983	0.13184	-0.14287	-0.063933	0.046066
319	2.8677	-0.12375	0.041271	0.15092	-0.12163	-0.19461	0.21786	-0.11524	-0.18281	0.24734	-0.046816	-0.15316	-0.008669	-0.046816	0.031938	-0.008669	0	0	0	-0.13119	0.045883	0.018016	-0.15384	0.071705	0.1321	-0.14292	-0.063939	0.045873
320	2.8768	-0.12369	0.040884	0.15095	-0.12157	-0.19518	0.21764	-0.11511	-0.18342	0.24712	-0.046816	-0.15316	-0.008669	-0.046816	0.031938	-0.008669	0	0	0	-0.13124	0.045955	0.018152	-0.15371	0.071424	0.13236	-0.14297	-0.063945	0.045682
321	2.8858	-0.12363	0.040493	0.15098	-0.1215	-0.19576	0.21742	-0.11499	-0.18403	0.2469	-0.046816	-0.15316	-0.008669	-0.046816	0.031938	-0.008669	0	0	0	-0.13129	0.046023	0.018289	-0.15357	0.07114	0.13261	-0.14302	-0.06395	0.045494
322	2.8948	-0.12357	0.0401	0.15101	-0.12144	-0.19633	0.2172	-0.11487	-0.18464	0.24667	-0.046816	-0.15316	-0.008669	-0.046816	0.031938	-0.008669	0	0	0	-0.13134	0.046086	0.018427	-0.15344	0.070853	0.13287	-0.14307	-0.063957	0.045309
323	2.9038	-0.1235	0.039704	0.15104	-0.12139	-0.1969	0.21697	-0.11476	-0.18525	0.24644	-0.046816	-0.15316	-0.008669	-0.046816	0.031938	-0.008669	0	0	0	-0.13139	0.046146	0.018567	-0.1533	0.070563	0.13313	-0.14312	-0.063963	0.045127
324	2.9128	-0.12343	0.039307	0.15107	-0.12133	-0.19748	0.21674	-0.11466	-0.18586	0.2462	-0.046816	-0.15316	-0.008669	-0.046816	0.031938	-0.008669	0	0	0	-0.13143	0.0462	0.018709	-0.15315	0.070271	0.13339	-0.14318	-0.063969	0.044949
325	2.9218	-0.12337	0.038908	0.1511	-0.12128	-0.19805	0.2165	-0.11457	-0.18648	0.24596	-0.046816	-0.15316	-0.008669	-0.046816	0.031938	-0.008669	0	0	0	-0.13148	0.046249	0.018852	-0.15301	0.069977	0.13365	-0.14323	-0.063975	0.044775
326	2.9309	-0.1233	0.038508	0.15113	-0.12124	-0.19862	0.21626	-0.11448	-0.18709	0.24572	-0.046816	-0.15316	-0.008669	-0.046816	0.031938	-0.008669	0	0	0	-0.13154	0.046293	0.018997	-0.15286	0.06968	0.13391	-0.14329	-0.063982	0.044604
327	2.9399	-0.12322	0.038106	0.15116	-0.1212	-0.19918	0.21602	-0.1144	-0.1877	0.24547	-0.046816	-0.15316	-0.008669	-0.046816	0.031938	-0.008669	0	0	0	-0.13159	0.046332	0.019143	-0.15272	0.069382	0.13417	-0.14334	-0.063989	0.044438
328	2.9489	-0.12315	0.037705	0.15119	-0.12116	-0.19975	0.21577	-0.11433	-0.18831	0.24522	-0.046816	-0.15316	-0.008669	-0.046816	0.031938	-0.008669	0	0	0	-0.13164	0.046364	0.01929	-0.15257	0.069081	0.13443	-0.1434	-0.063995	0.044277
329	2.9579	-0.12307	0.037302	0.15123	-0.12113	-0.20031	0.21552	-0.11427	-0.18891	0.24497	-0.046816	-0.15316	-0.008669	-0.046816	0.031938	-0.008669	0	0	0	-0.13169	0.046391	0.019438	-0.15241	0.068779	0.13469	-0.14346	-0.064002	0.044121
330	2.9669	-0.123	0.0369	0.15126	-0.12111	-0.20086	0.21527	-0.11421	-0.18951	0.24471	-0.046816	-0.15316	-0.008669	-0.046816	0.031938	-0.008669	0	0	0	-0.13174	0.046411	0.019587	-0.15226	0.068475	0.13495	-0.14352	-0.064009	0.043969
331	2.976	-0.12292	0.036498	0.15129	-0.12109	-0.20142	0.21501	-0.11417	-0.19011	0.24445	-0.046816	-0.15316	-0.008669	-0.046816	0.031938	-0.008669	0	0	0	-0.13179	0.046425	0.019738	-0.1521	0.06817	0.13521	-0.14358	-0.064016	0.043824
332	2.985	-0.12284	0.036096	0.15132	-0.12107	-0.20196	0.21475	-0.11414	-0.1907	0.24419	-0.046816	-0.15316	-0.008669	-0.046816	0.031938	-0.008669	0	0	0	-0.13184	0.046431	0.019889	-0.15195	0.067863	0.13547	-0.14364	-0.064024	0.043684
333	2.994	-0.12276	0.035695	0.15136	-0.12106	-0.2025	0.21449	-0.11412	-0.19129	0.24393	-0.046816	-0.15316	-0.008669	-0.046816	0.031938	-0.008669	0	0	0	-0.1319	0.046431	0.020042	-0.15179	0.067556	0.13572	-0.14371	-0.064031	0.043551
334	3.003	-0.12267	0.035294	0.15139	-0.12106	-0.20304	0.21423	-0.11411	-0.19188	0.24366	-0.046816	-0.15316	-0.008669	-0.046816	0.031938	-0.008669	0	0	0	-0.13195	0.046424	0.020196	-0.15162	0.067246	0.13598	-0.14377	-0.064039	0.043423
335	3.012	-0.12257	0.034873	0.15143	-0.1211	-0.20359	0.21394	-0.11413	-0.19248	0.24336	-0.046816	-0.15316	-0.008669	-0.046816	0.031938	-0.008669	0	0	0	-0.132	0.046411	0.02036	-0.15145	0.066915	0.13624	-0.14387	-0.064049	0.043295
336	3.021	-0.12246	0.034425	0.15146	-0.12117	-0.20417	0.21362	-0.11417	-0.19312	0.24303	-0.046816	-0.15316	-0.008669	-0.046816	0.031938	-0.008669	0	0	0	-0.13207	0.046393	0.020535	-0.15125	0.066559	0.13651	-0.144	-0.064064	0.043166
337	3.0301	-0.12234	0.033952	0.1515	-0.12128	-0.20477	0.21327	-0.11425	-0.19378	0.24267	-0.046816	-0.15316	-0.008669	-0.046816	0.031938	-0.008669	0	0	0	-0.13213	0.04637	0.020723	-0.15103	0.066179	0.1368	-0.14417	-0.064082	0.043036
